<svg width="25" height="37" viewBox="0 0 25 37" fill="none" xmlns="http://www.w3.org/2000/svg">
<path d="M22.1396 30.723C20.5059 29.0831 19.7991 26.9565 19.7991 26.9565C19.4829 26.0079 19.4023 25.2329 19.3558 24.7741C19.3031 24.2564 19.2256 23.4132 19.3868 22.3375C19.5697 21.1223 19.9665 20.2326 20.2424 19.6157C20.5121 19.0143 20.8066 18.4842 20.9709 18.1928C21.3336 17.5449 21.6343 17.0892 21.6994 16.99C21.9939 16.5374 23.2897 14.3798 23.6617 11.9897C23.9593 10.0864 23.6152 8.38445 23.1874 7.13516L22.2388 8.08376C22.028 8.29456 21.8978 8.58595 21.8637 8.92075L21.7831 9.70195C21.7397 10.1329 21.5692 10.5079 21.2902 10.7869L20.6423 11.4348C20.7694 11.6766 20.7353 11.9804 20.5307 12.1819C20.2827 12.4299 19.8766 12.4299 19.6286 12.1819C19.3806 11.9339 19.3806 11.5278 19.6286 11.2798C19.8208 11.0876 20.1091 11.0442 20.3447 11.1527L21.0019 10.4956C21.2127 10.2848 21.3429 9.99335 21.377 9.65855L21.4576 8.87735C21.501 8.44646 21.6715 8.07136 21.9536 7.79236L23.0386 6.70736C22.8867 6.31676 22.7348 5.98196 22.6015 5.71846L19.424 8.89595C19.5356 9.13155 19.4953 9.41985 19.3 9.61515C19.052 9.86315 18.6459 9.86315 18.3979 9.61515C18.1499 9.36715 18.1499 8.96105 18.3979 8.71305C18.5932 8.51775 18.8815 8.47745 19.1171 8.58905L22.3876 5.31856C22.3039 5.17286 22.2419 5.07056 22.214 5.02716C22.1055 4.85666 21.9908 4.69546 21.8792 4.54046L20.1618 6.25786C19.8828 6.53686 19.5077 6.70736 19.0768 6.75076L18.2956 6.83136C17.9608 6.86546 17.6694 6.99566 17.4586 7.20646L16.9378 7.72726C17.0463 7.96286 17.0029 8.24806 16.8107 8.44335C16.5627 8.69135 16.1566 8.69135 15.9086 8.44335C15.6606 8.19536 15.6606 7.78926 15.9086 7.54126C16.1101 7.33976 16.4139 7.30256 16.6557 7.42966L17.1703 6.91506C17.4493 6.63606 17.8244 6.46556 18.2553 6.41906L19.0365 6.33846C19.3713 6.30436 19.6627 6.17416 19.8735 5.96336L21.6281 4.20876C20.6485 2.98737 19.6069 2.29297 19.083 1.95507C16.0295 -0.0103265 12.914 0.104373 11.8569 0.157073C10.9052 0.203573 7.58205 0.417473 4.54716 2.87887C2.09817 4.86596 0.907768 7.62186 0.805468 9.42915C0.734168 10.6971 1.13717 11.7076 1.13717 11.7076C1.46577 12.6965 1.51227 12.5539 1.66727 13.2266C1.97107 14.5379 1.12477 16.1344 0.402469 17.4984C0.386969 17.5263 0.309469 17.672 0.244369 17.8766C0.176169 18.0874 0.104869 18.3168 0.148269 18.54C0.207169 18.8283 0.445869 18.9988 0.687668 19.1724C1.13097 19.4917 1.35417 19.4142 1.57427 19.7118C1.62077 19.7769 1.76027 19.9815 1.76337 20.2512C1.76957 20.5364 1.61767 20.5922 1.57427 20.9549C1.55877 21.0851 1.52777 21.3331 1.63627 21.578C1.77267 21.8849 1.97417 21.857 2.07957 22.1484C2.15707 22.3654 2.06406 22.4367 2.11056 22.7188C2.15086 22.973 2.24696 23.0381 2.42676 23.3822C2.67786 23.8658 2.78326 24.2905 2.83906 24.5199C2.85766 24.5974 2.91966 24.864 2.96616 25.2174C3.03126 25.7289 2.97546 25.7816 3.06226 25.9769C3.23586 26.3799 3.64506 26.5597 3.75976 26.6093C4.05116 26.7364 4.30226 26.7364 4.51926 26.7364C4.83236 26.7364 5.07416 26.662 5.56396 26.5163C6.19016 26.3272 6.50635 26.2342 6.73575 26.073C6.81325 26.0172 6.96825 25.9025 7.21005 25.8188C7.33715 25.7754 7.50765 25.7196 7.68435 25.7568C7.94785 25.8126 8.10285 26.0544 8.18965 26.2001C9.10725 27.7346 9.36145 29.111 9.36145 29.111C9.53815 30.0627 9.43895 29.4892 9.62185 31.2128C9.64045 31.3926 9.59705 32.0219 9.51955 32.3722C9.39865 32.9054 9.09795 33.2619 8.85615 33.544C8.58645 33.8571 8.46245 33.9129 7.74945 34.5236C7.43635 34.7902 7.12325 35.0723 6.97135 35.2087C8.68565 35.7202 10.4991 35.9961 12.3808 35.9961C16.6743 35.9961 20.633 34.5639 23.8074 32.149C23.4106 31.839 22.834 31.4174 22.6511 31.2314C22.6511 31.2314 22.1768 30.7571 22.1458 30.7261L22.1396 30.723Z" fill="#DA514F" stroke="#DA514F" stroke-width="0.27" stroke-miterlimit="10"/>
<path d="M18.5743 18.2423C19.0588 18.2423 19.4516 17.8495 19.4516 17.365C19.4516 16.8805 19.0588 16.4877 18.5743 16.4877C18.0898 16.4877 17.697 16.8805 17.697 17.365C17.697 17.8495 18.0898 18.2423 18.5743 18.2423Z" fill="white"/>
<path d="M14.1446 9.41052C11.6987 9.41052 9.71777 11.3945 9.71777 13.8373C9.71777 16.2801 11.7018 18.2641 14.1446 18.2641C16.5874 18.2641 18.5714 16.2801 18.5714 13.8373C18.5714 11.3945 16.5874 9.41052 14.1446 9.41052ZM14.1446 16.4878C12.6783 16.4878 11.491 15.3005 11.491 13.8342C11.491 12.3679 12.6783 11.1806 14.1446 11.1806C15.6109 11.1806 16.7982 12.3679 16.7982 13.8342C16.7982 15.3005 15.6109 16.4878 14.1446 16.4878Z" fill="white"/>
</svg>
